<?xml version="1.0" encoding="UTF-8"?>
<svg xmlns="http://www.w3.org/2000/svg" version="1.1" width="313" height="313" viewBox="0 0 313 313"><rect x="0" y="0" width="313" height="313" fill="#fefefe"/><g transform="scale(9.485)"><g transform="translate(0,0)"><path fill-rule="evenodd" d="M8 0L8 2L10 2L10 3L8 3L8 7L9 7L9 6L10 6L10 8L9 8L9 9L7 9L7 8L6 8L6 9L5 9L5 10L4 10L4 8L3 8L3 9L2 9L2 11L1 11L1 12L0 12L0 13L1 13L1 15L0 15L0 17L1 17L1 18L2 18L2 20L4 20L4 22L3 22L3 21L1 21L1 22L0 22L0 23L1 23L1 24L0 24L0 25L1 25L1 24L3 24L3 25L7 25L7 24L6 24L6 23L7 23L7 22L9 22L9 23L8 23L8 24L9 24L9 25L8 25L8 26L9 26L9 27L10 27L10 29L11 29L11 30L12 30L12 29L13 29L13 28L11 28L11 27L12 27L12 25L13 25L13 27L15 27L15 29L16 29L16 31L15 31L15 30L14 30L14 31L15 31L15 32L10 32L10 33L16 33L16 32L17 32L17 31L19 31L19 30L18 30L18 28L19 28L19 29L20 29L20 28L21 28L21 27L22 27L22 26L23 26L23 25L22 25L22 24L23 24L23 22L24 22L24 21L23 21L23 20L22 20L22 19L23 19L23 18L24 18L24 19L26 19L26 20L25 20L25 24L24 24L24 29L23 29L23 28L22 28L22 29L21 29L21 30L22 30L22 32L21 32L21 33L22 33L22 32L23 32L23 33L25 33L25 32L26 32L26 33L29 33L29 30L31 30L31 29L32 29L32 31L33 31L33 28L31 28L31 29L30 29L30 27L31 27L31 26L33 26L33 25L31 25L31 26L30 26L30 25L29 25L29 23L30 23L30 22L28 22L28 20L29 20L29 18L28 18L28 17L29 17L29 16L26 16L26 15L25 15L25 14L23 14L23 15L22 15L22 14L20 14L20 13L21 13L21 12L22 12L22 13L23 13L23 11L21 11L21 12L20 12L20 10L19 10L19 12L18 12L18 13L17 13L17 11L16 11L16 10L17 10L17 9L18 9L18 8L19 8L19 9L21 9L21 10L22 10L22 9L23 9L23 6L24 6L24 8L25 8L25 6L24 6L24 5L23 5L23 4L22 4L22 5L23 5L23 6L22 6L22 7L21 7L21 6L20 6L20 7L19 7L19 6L18 6L18 7L17 7L17 6L16 6L16 2L15 2L15 6L14 6L14 4L13 4L13 5L12 5L12 4L11 4L11 5L12 5L12 9L10 9L10 8L11 8L11 6L10 6L10 5L9 5L9 4L10 4L10 3L14 3L14 0L13 0L13 1L12 1L12 2L11 2L11 1L10 1L10 0ZM16 0L16 1L17 1L17 5L18 5L18 3L19 3L19 4L21 4L21 3L19 3L19 1L17 1L17 0ZM20 0L20 1L23 1L23 2L22 2L22 3L23 3L23 2L25 2L25 0ZM13 6L13 7L14 7L14 8L13 8L13 10L11 10L11 11L15 11L15 13L16 13L16 16L15 16L15 17L13 17L13 16L11 16L11 12L10 12L10 9L9 9L9 11L8 11L8 10L7 10L7 9L6 9L6 10L7 10L7 11L6 11L6 12L3 12L3 11L4 11L4 10L3 10L3 11L2 11L2 12L1 12L1 13L2 13L2 14L4 14L4 13L5 13L5 16L4 16L4 15L2 15L2 16L1 16L1 17L2 17L2 16L3 16L3 17L5 17L5 16L7 16L7 17L6 17L6 18L3 18L3 19L6 19L6 20L5 20L5 22L4 22L4 24L5 24L5 22L7 22L7 21L8 21L8 20L7 20L7 19L6 19L6 18L8 18L8 16L10 16L10 17L9 17L9 18L10 18L10 17L11 17L11 18L14 18L14 19L15 19L15 20L13 20L13 19L12 19L12 20L11 20L11 19L9 19L9 20L10 20L10 22L11 22L11 21L12 21L12 23L13 23L13 24L16 24L16 21L15 21L15 20L16 20L16 19L17 19L17 24L18 24L18 25L17 25L17 26L20 26L20 27L21 27L21 26L22 26L22 25L19 25L19 24L21 24L21 23L22 23L22 21L21 21L21 20L20 20L20 21L18 21L18 19L19 19L19 18L21 18L21 19L22 19L22 18L21 18L21 17L20 17L20 16L21 16L21 15L20 15L20 14L19 14L19 17L17 17L17 15L18 15L18 14L17 14L17 13L16 13L16 11L15 11L15 10L14 10L14 9L16 9L16 8L15 8L15 7L16 7L16 6L15 6L15 7L14 7L14 6ZM20 7L20 8L21 8L21 7ZM27 8L27 9L26 9L26 10L25 10L25 9L24 9L24 10L25 10L25 12L24 12L24 13L25 13L25 12L26 12L26 14L27 14L27 15L29 15L29 13L30 13L30 12L28 12L28 13L27 13L27 9L29 9L29 10L30 10L30 11L31 11L31 12L32 12L32 14L30 14L30 15L32 15L32 14L33 14L33 12L32 12L32 11L33 11L33 8L31 8L31 9L30 9L30 8ZM31 9L31 10L32 10L32 9ZM6 12L6 13L7 13L7 14L6 14L6 15L7 15L7 16L8 16L8 15L9 15L9 14L8 14L8 13L7 13L7 12ZM13 12L13 13L12 13L12 15L13 15L13 13L14 13L14 12ZM14 14L14 15L15 15L15 14ZM24 15L24 16L22 16L22 17L24 17L24 18L25 18L25 17L24 17L24 16L25 16L25 15ZM26 17L26 19L28 19L28 18L27 18L27 17ZM30 17L30 19L31 19L31 21L32 21L32 22L31 22L31 24L32 24L32 23L33 23L33 20L32 20L32 19L33 19L33 18L32 18L32 17ZM15 18L15 19L16 19L16 18ZM17 18L17 19L18 19L18 18ZM6 20L6 21L7 21L7 20ZM12 20L12 21L13 21L13 23L14 23L14 22L15 22L15 21L13 21L13 20ZM20 21L20 22L18 22L18 23L21 23L21 21ZM26 21L26 22L27 22L27 24L28 24L28 22L27 22L27 21ZM2 22L2 23L3 23L3 22ZM9 23L9 24L10 24L10 23ZM9 25L9 26L11 26L11 25ZM15 25L15 26L16 26L16 25ZM25 25L25 28L28 28L28 25ZM26 26L26 27L27 27L27 26ZM16 27L16 28L17 28L17 27ZM8 29L8 30L9 30L9 31L10 31L10 30L9 30L9 29ZM22 29L22 30L23 30L23 29ZM27 29L27 30L26 30L26 31L27 31L27 30L28 30L28 29ZM24 30L24 31L23 31L23 32L24 32L24 31L25 31L25 30ZM18 32L18 33L19 33L19 32ZM31 32L31 33L32 33L32 32ZM0 0L0 7L7 7L7 0ZM1 1L1 6L6 6L6 1ZM2 2L2 5L5 5L5 2ZM26 0L26 7L33 7L33 0ZM27 1L27 6L32 6L32 1ZM28 2L28 5L31 5L31 2ZM0 26L0 33L7 33L7 26ZM1 27L1 32L6 32L6 27ZM2 28L2 31L5 31L5 28Z" fill="#000000"/></g></g></svg>
